<mxfile host="app.diagrams.net" modified="2021-02-13T02:05:01.487Z" agent="5.0 (Windows NT 10.0; Win64; x64) AppleWebKit/537.36 (KHTML, like Gecko) Chrome/88.0.4324.150 Safari/537.36 Edg/88.0.705.68" etag="TqVJ80OcY9wJD_r-ocMa" version="14.3.1" type="github">
  <diagram id="C5RBs43oDa-KdzZeNtuy" name="Page-1">
    <mxGraphModel dx="1422" dy="724" grid="1" gridSize="10" guides="1" tooltips="1" connect="1" arrows="1" fold="1" page="1" pageScale="1" pageWidth="827" pageHeight="1169" math="0" shadow="0">
      <root>
        <mxCell id="WIyWlLk6GJQsqaUBKTNV-0" />
        <mxCell id="WIyWlLk6GJQsqaUBKTNV-1" parent="WIyWlLk6GJQsqaUBKTNV-0" />
        <mxCell id="7BrCG-yt0Tp_b3YPewmX-1" value="Initialization Sequence" style="swimlane;" vertex="1" parent="WIyWlLk6GJQsqaUBKTNV-1">
          <mxGeometry x="60" y="40" width="180" height="430" as="geometry" />
        </mxCell>
        <mxCell id="7BrCG-yt0Tp_b3YPewmX-3" value="Start / Reset Vector" style="strokeWidth=2;html=1;shape=mxgraph.flowchart.terminator;whiteSpace=wrap;" vertex="1" parent="7BrCG-yt0Tp_b3YPewmX-1">
          <mxGeometry x="40" y="40" width="100" height="40" as="geometry" />
        </mxCell>
        <mxCell id="7BrCG-yt0Tp_b3YPewmX-4" value="CS Configuration" style="rounded=0;whiteSpace=wrap;html=1;" vertex="1" parent="7BrCG-yt0Tp_b3YPewmX-1">
          <mxGeometry x="30" y="110" width="120" height="20" as="geometry" />
        </mxCell>
        <mxCell id="7BrCG-yt0Tp_b3YPewmX-5" value="" style="endArrow=classic;html=1;exitX=0.5;exitY=1;exitDx=0;exitDy=0;exitPerimeter=0;entryX=0.5;entryY=0;entryDx=0;entryDy=0;" edge="1" parent="7BrCG-yt0Tp_b3YPewmX-1" source="7BrCG-yt0Tp_b3YPewmX-3" target="7BrCG-yt0Tp_b3YPewmX-4">
          <mxGeometry width="50" height="50" relative="1" as="geometry">
            <mxPoint x="220" y="120" as="sourcePoint" />
            <mxPoint x="270" y="70" as="targetPoint" />
          </mxGeometry>
        </mxCell>
        <mxCell id="7BrCG-yt0Tp_b3YPewmX-6" value="GPIO Configuration" style="rounded=0;whiteSpace=wrap;html=1;" vertex="1" parent="7BrCG-yt0Tp_b3YPewmX-1">
          <mxGeometry x="30" y="150" width="120" height="20" as="geometry" />
        </mxCell>
        <mxCell id="7BrCG-yt0Tp_b3YPewmX-7" value="" style="endArrow=classic;html=1;exitX=0.5;exitY=1;exitDx=0;exitDy=0;entryX=0.5;entryY=0;entryDx=0;entryDy=0;" edge="1" parent="7BrCG-yt0Tp_b3YPewmX-1" source="7BrCG-yt0Tp_b3YPewmX-4" target="7BrCG-yt0Tp_b3YPewmX-6">
          <mxGeometry width="50" height="50" relative="1" as="geometry">
            <mxPoint x="220" y="120" as="sourcePoint" />
            <mxPoint x="270" y="70" as="targetPoint" />
          </mxGeometry>
        </mxCell>
        <mxCell id="7BrCG-yt0Tp_b3YPewmX-13" value="ADC Initialization" style="whiteSpace=wrap;html=1;rounded=0;" vertex="1" parent="7BrCG-yt0Tp_b3YPewmX-1">
          <mxGeometry x="30" y="230" width="120" height="20" as="geometry" />
        </mxCell>
        <mxCell id="7BrCG-yt0Tp_b3YPewmX-15" value="Timer Configuration" style="rounded=0;whiteSpace=wrap;html=1;" vertex="1" parent="7BrCG-yt0Tp_b3YPewmX-1">
          <mxGeometry x="30" y="270" width="120" height="20" as="geometry" />
        </mxCell>
        <mxCell id="7BrCG-yt0Tp_b3YPewmX-16" value="" style="endArrow=classic;html=1;exitX=0.5;exitY=1;exitDx=0;exitDy=0;entryX=0.5;entryY=0;entryDx=0;entryDy=0;" edge="1" parent="7BrCG-yt0Tp_b3YPewmX-1" source="7BrCG-yt0Tp_b3YPewmX-13" target="7BrCG-yt0Tp_b3YPewmX-15">
          <mxGeometry width="50" height="50" relative="1" as="geometry">
            <mxPoint x="190" y="130" as="sourcePoint" />
            <mxPoint x="240" y="80" as="targetPoint" />
          </mxGeometry>
        </mxCell>
        <mxCell id="7BrCG-yt0Tp_b3YPewmX-17" value="" style="edgeStyle=orthogonalEdgeStyle;rounded=0;orthogonalLoop=1;jettySize=auto;html=1;" edge="1" target="7BrCG-yt0Tp_b3YPewmX-20" parent="7BrCG-yt0Tp_b3YPewmX-1">
          <mxGeometry relative="1" as="geometry">
            <mxPoint x="90" y="170" as="sourcePoint" />
          </mxGeometry>
        </mxCell>
        <mxCell id="7BrCG-yt0Tp_b3YPewmX-18" value="" style="edgeStyle=orthogonalEdgeStyle;rounded=0;orthogonalLoop=1;jettySize=auto;html=1;" edge="1" source="7BrCG-yt0Tp_b3YPewmX-20" parent="7BrCG-yt0Tp_b3YPewmX-1">
          <mxGeometry relative="1" as="geometry">
            <mxPoint x="90" y="230" as="targetPoint" />
          </mxGeometry>
        </mxCell>
        <mxCell id="7BrCG-yt0Tp_b3YPewmX-19" value="" style="endArrow=classic;html=1;exitX=0.5;exitY=1;exitDx=0;exitDy=0;entryX=0.5;entryY=0;entryDx=0;entryDy=0;" edge="1" parent="7BrCG-yt0Tp_b3YPewmX-1">
          <mxGeometry width="50" height="50" relative="1" as="geometry">
            <mxPoint x="90" y="250" as="sourcePoint" />
            <mxPoint x="90" y="270" as="targetPoint" />
          </mxGeometry>
        </mxCell>
        <mxCell id="7BrCG-yt0Tp_b3YPewmX-20" value="I2C Initialization" style="whiteSpace=wrap;html=1;rounded=0;" vertex="1" parent="7BrCG-yt0Tp_b3YPewmX-1">
          <mxGeometry x="30" y="190" width="120" height="20" as="geometry" />
        </mxCell>
        <mxCell id="7BrCG-yt0Tp_b3YPewmX-22" value="NVIC Configuration" style="rounded=0;whiteSpace=wrap;html=1;" vertex="1" parent="7BrCG-yt0Tp_b3YPewmX-1">
          <mxGeometry x="30" y="310" width="120" height="20" as="geometry" />
        </mxCell>
        <mxCell id="7BrCG-yt0Tp_b3YPewmX-23" value="" style="endArrow=classic;html=1;exitX=0.5;exitY=1;exitDx=0;exitDy=0;entryX=0.5;entryY=0;entryDx=0;entryDy=0;" edge="1" parent="7BrCG-yt0Tp_b3YPewmX-1" source="7BrCG-yt0Tp_b3YPewmX-15" target="7BrCG-yt0Tp_b3YPewmX-22">
          <mxGeometry width="50" height="50" relative="1" as="geometry">
            <mxPoint x="190" y="330" as="sourcePoint" />
            <mxPoint x="240" y="280" as="targetPoint" />
          </mxGeometry>
        </mxCell>
        <mxCell id="7BrCG-yt0Tp_b3YPewmX-24" value="Create RTOS Tasks" style="rounded=0;whiteSpace=wrap;html=1;" vertex="1" parent="7BrCG-yt0Tp_b3YPewmX-1">
          <mxGeometry x="30" y="350" width="120" height="20" as="geometry" />
        </mxCell>
        <mxCell id="7BrCG-yt0Tp_b3YPewmX-25" value="" style="endArrow=classic;html=1;exitX=0.5;exitY=1;exitDx=0;exitDy=0;entryX=0.5;entryY=0;entryDx=0;entryDy=0;" edge="1" parent="7BrCG-yt0Tp_b3YPewmX-1" source="7BrCG-yt0Tp_b3YPewmX-22" target="7BrCG-yt0Tp_b3YPewmX-24">
          <mxGeometry width="50" height="50" relative="1" as="geometry">
            <mxPoint x="190" y="230" as="sourcePoint" />
            <mxPoint x="240" y="180" as="targetPoint" />
          </mxGeometry>
        </mxCell>
        <mxCell id="7BrCG-yt0Tp_b3YPewmX-26" value="Start RTOS BIOS" style="rounded=0;whiteSpace=wrap;html=1;" vertex="1" parent="7BrCG-yt0Tp_b3YPewmX-1">
          <mxGeometry x="30" y="390" width="120" height="20" as="geometry" />
        </mxCell>
        <mxCell id="7BrCG-yt0Tp_b3YPewmX-27" value="" style="endArrow=classic;html=1;exitX=0.5;exitY=1;exitDx=0;exitDy=0;entryX=0.5;entryY=0;entryDx=0;entryDy=0;" edge="1" parent="7BrCG-yt0Tp_b3YPewmX-1" source="7BrCG-yt0Tp_b3YPewmX-24" target="7BrCG-yt0Tp_b3YPewmX-26">
          <mxGeometry width="50" height="50" relative="1" as="geometry">
            <mxPoint x="190" y="230" as="sourcePoint" />
            <mxPoint x="240" y="180" as="targetPoint" />
          </mxGeometry>
        </mxCell>
        <mxCell id="7BrCG-yt0Tp_b3YPewmX-28" value="" style="endArrow=classic;html=1;exitX=1;exitY=0.5;exitDx=0;exitDy=0;entryX=0;entryY=0.5;entryDx=0;entryDy=0;" edge="1" parent="WIyWlLk6GJQsqaUBKTNV-1" source="7BrCG-yt0Tp_b3YPewmX-26" target="7BrCG-yt0Tp_b3YPewmX-32">
          <mxGeometry width="50" height="50" relative="1" as="geometry">
            <mxPoint x="410" y="390" as="sourcePoint" />
            <mxPoint x="350" y="110" as="targetPoint" />
            <Array as="points">
              <mxPoint x="260" y="440" />
              <mxPoint x="260" y="130" />
            </Array>
          </mxGeometry>
        </mxCell>
        <mxCell id="7BrCG-yt0Tp_b3YPewmX-29" value="Bluetooth Advertising/Connection" style="swimlane;rounded=0;html=1;" vertex="1" parent="WIyWlLk6GJQsqaUBKTNV-1">
          <mxGeometry x="280" y="40" width="470" height="170" as="geometry" />
        </mxCell>
        <mxCell id="7BrCG-yt0Tp_b3YPewmX-32" value="Begin Advertising" style="rounded=0;whiteSpace=wrap;html=1;" vertex="1" parent="7BrCG-yt0Tp_b3YPewmX-29">
          <mxGeometry x="24" y="80" width="120" height="20" as="geometry" />
        </mxCell>
        <mxCell id="7BrCG-yt0Tp_b3YPewmX-33" value="Handshake Request Recieved?" style="rhombus;whiteSpace=wrap;html=1;rounded=0;" vertex="1" parent="7BrCG-yt0Tp_b3YPewmX-29">
          <mxGeometry x="190" y="45" width="100" height="90" as="geometry" />
        </mxCell>
        <mxCell id="7BrCG-yt0Tp_b3YPewmX-34" value="" style="endArrow=classic;html=1;exitX=1;exitY=0.5;exitDx=0;exitDy=0;entryX=0;entryY=0.5;entryDx=0;entryDy=0;" edge="1" parent="7BrCG-yt0Tp_b3YPewmX-29" source="7BrCG-yt0Tp_b3YPewmX-32" target="7BrCG-yt0Tp_b3YPewmX-33">
          <mxGeometry width="50" height="50" relative="1" as="geometry">
            <mxPoint x="180" y="130" as="sourcePoint" />
            <mxPoint x="230" y="80" as="targetPoint" />
          </mxGeometry>
        </mxCell>
        <mxCell id="7BrCG-yt0Tp_b3YPewmX-38" value="No" style="text;html=1;strokeColor=none;fillColor=none;align=center;verticalAlign=middle;whiteSpace=wrap;rounded=0;" vertex="1" parent="7BrCG-yt0Tp_b3YPewmX-29">
          <mxGeometry x="180" y="140" width="40" height="20" as="geometry" />
        </mxCell>
        <mxCell id="7BrCG-yt0Tp_b3YPewmX-39" value="Initialize Connection with Host" style="rounded=0;whiteSpace=wrap;html=1;" vertex="1" parent="7BrCG-yt0Tp_b3YPewmX-29">
          <mxGeometry x="320" y="120" width="120" height="30" as="geometry" />
        </mxCell>
        <mxCell id="7BrCG-yt0Tp_b3YPewmX-40" value="" style="endArrow=classic;html=1;exitX=1;exitY=0.5;exitDx=0;exitDy=0;entryX=0;entryY=0.5;entryDx=0;entryDy=0;" edge="1" parent="7BrCG-yt0Tp_b3YPewmX-29" source="7BrCG-yt0Tp_b3YPewmX-33" target="7BrCG-yt0Tp_b3YPewmX-43">
          <mxGeometry width="50" height="50" relative="1" as="geometry">
            <mxPoint x="180" y="130" as="sourcePoint" />
            <mxPoint x="320" y="90" as="targetPoint" />
          </mxGeometry>
        </mxCell>
        <mxCell id="7BrCG-yt0Tp_b3YPewmX-41" value="Yes" style="text;html=1;strokeColor=none;fillColor=none;align=center;verticalAlign=middle;whiteSpace=wrap;rounded=0;" vertex="1" parent="7BrCG-yt0Tp_b3YPewmX-29">
          <mxGeometry x="280" y="60" width="40" height="20" as="geometry" />
        </mxCell>
        <mxCell id="7BrCG-yt0Tp_b3YPewmX-43" value="Stop Advertising" style="rounded=0;whiteSpace=wrap;html=1;" vertex="1" parent="7BrCG-yt0Tp_b3YPewmX-29">
          <mxGeometry x="320" y="80" width="120" height="20" as="geometry" />
        </mxCell>
        <mxCell id="7BrCG-yt0Tp_b3YPewmX-45" value="" style="endArrow=classic;html=1;entryX=0.5;entryY=0;entryDx=0;entryDy=0;exitX=0.5;exitY=1;exitDx=0;exitDy=0;" edge="1" parent="7BrCG-yt0Tp_b3YPewmX-29" source="7BrCG-yt0Tp_b3YPewmX-43" target="7BrCG-yt0Tp_b3YPewmX-39">
          <mxGeometry width="50" height="50" relative="1" as="geometry">
            <mxPoint x="220" y="100" as="sourcePoint" />
            <mxPoint x="270" y="50" as="targetPoint" />
          </mxGeometry>
        </mxCell>
        <mxCell id="7BrCG-yt0Tp_b3YPewmX-35" value="" style="endArrow=classic;html=1;exitX=0.5;exitY=1;exitDx=0;exitDy=0;" edge="1" parent="WIyWlLk6GJQsqaUBKTNV-1" source="7BrCG-yt0Tp_b3YPewmX-33">
          <mxGeometry width="50" height="50" relative="1" as="geometry">
            <mxPoint x="460" y="170" as="sourcePoint" />
            <mxPoint x="470" y="130" as="targetPoint" />
            <Array as="points">
              <mxPoint x="520" y="200" />
              <mxPoint x="450" y="200" />
              <mxPoint x="450" y="130" />
            </Array>
          </mxGeometry>
        </mxCell>
        <mxCell id="7BrCG-yt0Tp_b3YPewmX-42" value="Main Loop" style="swimlane;rounded=0;html=1;" vertex="1" parent="WIyWlLk6GJQsqaUBKTNV-1">
          <mxGeometry x="280" y="250" width="470" height="390" as="geometry" />
        </mxCell>
        <mxCell id="7BrCG-yt0Tp_b3YPewmX-47" value="Input Interrupt Recieved" style="rhombus;whiteSpace=wrap;html=1;rounded=0;" vertex="1" parent="7BrCG-yt0Tp_b3YPewmX-42">
          <mxGeometry x="325" y="50" width="110" height="110" as="geometry" />
        </mxCell>
        <mxCell id="7BrCG-yt0Tp_b3YPewmX-48" value="Signal Strength" style="swimlane;rounded=0;html=1;" vertex="1" parent="7BrCG-yt0Tp_b3YPewmX-42">
          <mxGeometry x="10" y="30" width="300" height="130" as="geometry" />
        </mxCell>
        <mxCell id="7BrCG-yt0Tp_b3YPewmX-50" value="Signal Update Timer Trigger" style="rhombus;whiteSpace=wrap;html=1;rounded=0;" vertex="1" parent="7BrCG-yt0Tp_b3YPewmX-48">
          <mxGeometry x="10" y="30" width="96" height="70" as="geometry" />
        </mxCell>
        <mxCell id="7BrCG-yt0Tp_b3YPewmX-51" value="Determine current device RSSI" style="rounded=0;whiteSpace=wrap;html=1;" vertex="1" parent="7BrCG-yt0Tp_b3YPewmX-48">
          <mxGeometry x="124" y="53.75" width="170" height="22.5" as="geometry" />
        </mxCell>
        <mxCell id="7BrCG-yt0Tp_b3YPewmX-53" value="" style="endArrow=classic;html=1;exitX=1;exitY=0.5;exitDx=0;exitDy=0;entryX=0;entryY=0.5;entryDx=0;entryDy=0;" edge="1" parent="7BrCG-yt0Tp_b3YPewmX-48" source="7BrCG-yt0Tp_b3YPewmX-50" target="7BrCG-yt0Tp_b3YPewmX-51">
          <mxGeometry width="50" height="50" relative="1" as="geometry">
            <mxPoint x="200" y="100" as="sourcePoint" />
            <mxPoint x="250" y="50" as="targetPoint" />
          </mxGeometry>
        </mxCell>
        <mxCell id="7BrCG-yt0Tp_b3YPewmX-54" value="Update LCD" style="rounded=0;whiteSpace=wrap;html=1;" vertex="1" parent="7BrCG-yt0Tp_b3YPewmX-48">
          <mxGeometry x="149" y="100" width="120" height="20" as="geometry" />
        </mxCell>
        <mxCell id="7BrCG-yt0Tp_b3YPewmX-55" value="" style="endArrow=classic;html=1;exitX=0.5;exitY=1;exitDx=0;exitDy=0;entryX=0.5;entryY=0;entryDx=0;entryDy=0;" edge="1" parent="7BrCG-yt0Tp_b3YPewmX-48" source="7BrCG-yt0Tp_b3YPewmX-51" target="7BrCG-yt0Tp_b3YPewmX-54">
          <mxGeometry width="50" height="50" relative="1" as="geometry">
            <mxPoint x="200" y="110" as="sourcePoint" />
            <mxPoint x="250" y="60" as="targetPoint" />
          </mxGeometry>
        </mxCell>
        <mxCell id="7BrCG-yt0Tp_b3YPewmX-56" value="Get Input Source and Values" style="rounded=0;whiteSpace=wrap;html=1;" vertex="1" parent="7BrCG-yt0Tp_b3YPewmX-42">
          <mxGeometry x="320" y="185" width="120" height="35" as="geometry" />
        </mxCell>
        <mxCell id="7BrCG-yt0Tp_b3YPewmX-57" value="" style="endArrow=classic;html=1;exitX=0.5;exitY=1;exitDx=0;exitDy=0;entryX=0.5;entryY=0;entryDx=0;entryDy=0;" edge="1" parent="7BrCG-yt0Tp_b3YPewmX-42" source="7BrCG-yt0Tp_b3YPewmX-47" target="7BrCG-yt0Tp_b3YPewmX-56">
          <mxGeometry width="50" height="50" relative="1" as="geometry">
            <mxPoint x="210" y="140" as="sourcePoint" />
            <mxPoint x="260" y="90" as="targetPoint" />
          </mxGeometry>
        </mxCell>
        <mxCell id="7BrCG-yt0Tp_b3YPewmX-58" value="Generate Event Packets" style="rounded=0;whiteSpace=wrap;html=1;" vertex="1" parent="7BrCG-yt0Tp_b3YPewmX-42">
          <mxGeometry x="40" y="262.75" width="120" height="30" as="geometry" />
        </mxCell>
        <mxCell id="7BrCG-yt0Tp_b3YPewmX-60" value="Transmit Data to Host" style="rounded=0;whiteSpace=wrap;html=1;" vertex="1" parent="7BrCG-yt0Tp_b3YPewmX-42">
          <mxGeometry x="40" y="320" width="120" height="24.5" as="geometry" />
        </mxCell>
        <mxCell id="7BrCG-yt0Tp_b3YPewmX-64" value="Yes" style="text;html=1;strokeColor=none;fillColor=none;align=center;verticalAlign=middle;whiteSpace=wrap;rounded=0;" vertex="1" parent="7BrCG-yt0Tp_b3YPewmX-42">
          <mxGeometry x="380" y="160" width="40" height="20" as="geometry" />
        </mxCell>
        <mxCell id="7BrCG-yt0Tp_b3YPewmX-65" value="Update LED Matrix" style="rounded=0;whiteSpace=wrap;html=1;" vertex="1" parent="7BrCG-yt0Tp_b3YPewmX-42">
          <mxGeometry x="190" y="267.75" width="120" height="20" as="geometry" />
        </mxCell>
        <mxCell id="7BrCG-yt0Tp_b3YPewmX-66" value="Input is &lt;br&gt;Button?" style="rhombus;whiteSpace=wrap;html=1;rounded=0;" vertex="1" parent="7BrCG-yt0Tp_b3YPewmX-42">
          <mxGeometry x="210" y="162.5" width="80" height="80" as="geometry" />
        </mxCell>
        <mxCell id="7BrCG-yt0Tp_b3YPewmX-68" value="" style="endArrow=classic;html=1;exitX=0;exitY=0.5;exitDx=0;exitDy=0;entryX=1;entryY=0.5;entryDx=0;entryDy=0;" edge="1" parent="7BrCG-yt0Tp_b3YPewmX-42" source="7BrCG-yt0Tp_b3YPewmX-56" target="7BrCG-yt0Tp_b3YPewmX-66">
          <mxGeometry width="50" height="50" relative="1" as="geometry">
            <mxPoint x="310" y="200" as="sourcePoint" />
            <mxPoint x="360" y="150" as="targetPoint" />
          </mxGeometry>
        </mxCell>
        <mxCell id="7BrCG-yt0Tp_b3YPewmX-69" value="" style="endArrow=classic;html=1;exitX=0.5;exitY=1;exitDx=0;exitDy=0;entryX=0.5;entryY=0;entryDx=0;entryDy=0;" edge="1" parent="7BrCG-yt0Tp_b3YPewmX-42" source="7BrCG-yt0Tp_b3YPewmX-66" target="7BrCG-yt0Tp_b3YPewmX-65">
          <mxGeometry width="50" height="50" relative="1" as="geometry">
            <mxPoint x="310" y="200" as="sourcePoint" />
            <mxPoint x="360" y="150" as="targetPoint" />
          </mxGeometry>
        </mxCell>
        <mxCell id="7BrCG-yt0Tp_b3YPewmX-70" value="" style="endArrow=classic;html=1;exitX=0;exitY=0.5;exitDx=0;exitDy=0;entryX=1;entryY=0.5;entryDx=0;entryDy=0;" edge="1" parent="7BrCG-yt0Tp_b3YPewmX-42" source="7BrCG-yt0Tp_b3YPewmX-65" target="7BrCG-yt0Tp_b3YPewmX-58">
          <mxGeometry width="50" height="50" relative="1" as="geometry">
            <mxPoint x="310" y="200" as="sourcePoint" />
            <mxPoint x="360" y="150" as="targetPoint" />
          </mxGeometry>
        </mxCell>
        <mxCell id="7BrCG-yt0Tp_b3YPewmX-71" value="" style="endArrow=classic;html=1;exitX=0;exitY=0.5;exitDx=0;exitDy=0;entryX=0.5;entryY=0;entryDx=0;entryDy=0;" edge="1" parent="7BrCG-yt0Tp_b3YPewmX-42" source="7BrCG-yt0Tp_b3YPewmX-66" target="7BrCG-yt0Tp_b3YPewmX-58">
          <mxGeometry width="50" height="50" relative="1" as="geometry">
            <mxPoint x="310" y="200" as="sourcePoint" />
            <mxPoint x="360" y="150" as="targetPoint" />
            <Array as="points">
              <mxPoint x="100" y="203" />
            </Array>
          </mxGeometry>
        </mxCell>
        <mxCell id="7BrCG-yt0Tp_b3YPewmX-73" value="Yes" style="text;html=1;strokeColor=none;fillColor=none;align=center;verticalAlign=middle;whiteSpace=wrap;rounded=0;" vertex="1" parent="7BrCG-yt0Tp_b3YPewmX-42">
          <mxGeometry x="260" y="242.5" width="40" height="20" as="geometry" />
        </mxCell>
        <mxCell id="7BrCG-yt0Tp_b3YPewmX-72" value="No" style="text;html=1;strokeColor=none;fillColor=none;align=center;verticalAlign=middle;whiteSpace=wrap;rounded=0;" vertex="1" parent="7BrCG-yt0Tp_b3YPewmX-42">
          <mxGeometry x="160" y="180" width="40" height="20" as="geometry" />
        </mxCell>
        <mxCell id="7BrCG-yt0Tp_b3YPewmX-75" value="" style="endArrow=classic;html=1;exitX=0.5;exitY=1;exitDx=0;exitDy=0;entryX=0.5;entryY=0;entryDx=0;entryDy=0;" edge="1" parent="7BrCG-yt0Tp_b3YPewmX-42" source="7BrCG-yt0Tp_b3YPewmX-58" target="7BrCG-yt0Tp_b3YPewmX-60">
          <mxGeometry width="50" height="50" relative="1" as="geometry">
            <mxPoint x="310" y="200" as="sourcePoint" />
            <mxPoint x="360" y="150" as="targetPoint" />
          </mxGeometry>
        </mxCell>
        <mxCell id="7BrCG-yt0Tp_b3YPewmX-77" value="No" style="text;html=1;strokeColor=none;fillColor=none;align=center;verticalAlign=middle;whiteSpace=wrap;rounded=0;" vertex="1" parent="7BrCG-yt0Tp_b3YPewmX-42">
          <mxGeometry x="420" y="30" width="40" height="20" as="geometry" />
        </mxCell>
        <mxCell id="7BrCG-yt0Tp_b3YPewmX-52" value="" style="endArrow=classic;html=1;exitX=0.5;exitY=1;exitDx=0;exitDy=0;entryX=0.5;entryY=0;entryDx=0;entryDy=0;" edge="1" parent="WIyWlLk6GJQsqaUBKTNV-1" source="7BrCG-yt0Tp_b3YPewmX-39" target="7BrCG-yt0Tp_b3YPewmX-47">
          <mxGeometry width="50" height="50" relative="1" as="geometry">
            <mxPoint x="490" y="240" as="sourcePoint" />
            <mxPoint x="540" y="190" as="targetPoint" />
          </mxGeometry>
        </mxCell>
        <mxCell id="7BrCG-yt0Tp_b3YPewmX-63" value="" style="endArrow=classic;html=1;exitX=1;exitY=0.5;exitDx=0;exitDy=0;" edge="1" parent="WIyWlLk6GJQsqaUBKTNV-1" source="7BrCG-yt0Tp_b3YPewmX-47">
          <mxGeometry width="50" height="50" relative="1" as="geometry">
            <mxPoint x="590" y="460" as="sourcePoint" />
            <mxPoint x="660" y="300" as="targetPoint" />
            <Array as="points">
              <mxPoint x="740" y="355" />
              <mxPoint x="740" y="280" />
              <mxPoint x="660" y="280" />
            </Array>
          </mxGeometry>
        </mxCell>
      </root>
    </mxGraphModel>
  </diagram>
</mxfile>
